<svg width="32" height="31" viewBox="0 0 32 31" fill="none" xmlns="http://www.w3.org/2000/svg">
<path d="M16 6.105C15.05 6.105 14.2368 5.80611 13.5603 5.20833C12.8838 4.61055 12.5455 3.89194 12.5455 3.0525C12.5455 2.21306 12.8838 1.49445 13.5603 0.896672C14.2368 0.298891 15.05 0 16 0C16.95 0 17.7633 0.298891 18.4398 0.896672C19.1163 1.49445 19.4546 2.21306 19.4546 3.0525C19.4546 3.89194 19.1163 4.61055 18.4398 5.20833C17.7633 5.80611 16.95 6.105 16 6.105ZM10.8182 30.525V10.6838H0.45459V7.63125H31.5455V10.6838H21.1819V30.525H17.7273V21.3675H14.2728V30.525H10.8182Z" fill="#176CCB"/>
</svg>
