<svg width="27" height="27" viewBox="0 0 27 27" fill="none" xmlns="http://www.w3.org/2000/svg">
<path d="M13.4678 7.21383C9.76284 7.21383 6.77441 10.2023 6.77441 13.9072C6.77441 17.6122 9.76284 20.6006 13.4678 20.6006C17.1728 20.6006 20.1612 17.6122 20.1612 13.9072C20.1612 10.2023 17.1728 7.21383 13.4678 7.21383ZM13.4678 18.2588C11.0736 18.2588 9.11622 16.3073 9.11622 13.9072C9.11622 11.5072 11.0677 9.55564 13.4678 9.55564C15.8679 9.55564 17.8194 11.5072 17.8194 13.9072C17.8194 16.3073 15.862 18.2588 13.4678 18.2588ZM21.9962 6.94004C21.9962 7.80802 21.2971 8.50125 20.435 8.50125C19.567 8.50125 18.8738 7.8022 18.8738 6.94004C18.8738 6.07788 19.5728 5.37883 20.435 5.37883C21.2971 5.37883 21.9962 6.07788 21.9962 6.94004ZM26.4293 8.52455C26.3303 6.43323 25.8526 4.58075 24.3205 3.05449C22.7943 1.52823 20.9418 1.05055 18.8505 0.945693C16.6951 0.823359 10.2347 0.823359 8.0793 0.945693C5.9938 1.04472 4.14132 1.52241 2.60924 3.04867C1.07716 4.57492 0.605299 6.4274 0.500442 8.51872C0.378108 10.6741 0.378108 17.1345 0.500442 19.2899C0.599473 21.3812 1.07716 23.2337 2.60924 24.76C4.14132 26.2862 5.98798 26.7639 8.0793 26.8688C10.2347 26.9911 16.6951 26.9911 18.8505 26.8688C20.9418 26.7697 22.7943 26.292 24.3205 24.76C25.8468 23.2337 26.3245 21.3812 26.4293 19.2899C26.5517 17.1345 26.5517 10.6799 26.4293 8.52455ZM23.6448 21.6026C23.1904 22.7444 22.3108 23.624 21.1632 24.0842C19.4447 24.7658 15.3669 24.6085 13.4678 24.6085C11.5687 24.6085 7.48511 24.76 5.77244 24.0842C4.63066 23.6298 3.75102 22.7502 3.29081 21.6026C2.60924 19.8841 2.76653 15.8063 2.76653 13.9072C2.76653 12.0081 2.61506 7.92453 3.29081 6.21186C3.74519 5.07008 4.62483 4.19044 5.77244 3.73024C7.49093 3.04866 11.5687 3.20595 13.4678 3.20595C15.3669 3.20595 19.4505 3.05449 21.1632 3.73024C22.3049 4.18462 23.1846 5.06426 23.6448 6.21186C24.3264 7.93036 24.1691 12.0081 24.1691 13.9072C24.1691 15.8063 24.3264 19.8899 23.6448 21.6026Z" fill="#5D9CE3"/>
</svg>
