<svg width="27" height="27" viewBox="0 0 27 27" fill="none" xmlns="http://www.w3.org/2000/svg">
<path d="M6.01555 26.5644H0.604908V8.82943H6.01555V26.5644ZM3.30731 6.41022C1.57717 6.41022 0.173828 4.95158 0.173828 3.19054C0.173828 2.34465 0.503962 1.5334 1.09161 0.935264C1.67925 0.337128 2.47626 0.00109863 3.30731 0.00109863C4.13837 0.00109863 4.93538 0.337128 5.52302 0.935264C6.11067 1.5334 6.4408 2.34465 6.4408 3.19054C6.4408 4.95158 5.03688 6.41022 3.30731 6.41022ZM26.2658 26.5644H20.8668V17.9311C20.8668 15.8736 20.8261 13.235 18.0538 13.235C15.2407 13.235 14.8096 15.4704 14.8096 17.7829V26.5644H9.40477V8.82943H14.594V11.2486H14.6698C15.3921 9.85522 17.1566 8.38472 19.7891 8.38472C25.265 8.38472 26.2717 12.055 26.2717 16.8223V26.5644H26.2658Z" fill="#5D9CE3"/>
</svg>
