<svg width="31" height="27" viewBox="0 0 31 27" fill="none" xmlns="http://www.w3.org/2000/svg">
<path d="M15.5 26.3333C13.7812 26.3333 12.1713 26.0167 10.6703 25.3833C9.16922 24.75 7.86297 23.8944 6.75151 22.8167C5.64006 21.7389 4.75776 20.4722 4.10464 19.0167C3.45151 17.5611 3.12495 16 3.12495 14.3333C3.12495 12.6667 3.45151 11.1056 4.10464 9.65C4.75776 8.19444 5.64006 6.92778 6.75151 5.85C7.86297 4.77222 9.16922 3.91666 10.6703 3.28333C12.1713 2.65 13.7812 2.33333 15.5 2.33333C17.2187 2.33333 18.8286 2.65 20.3296 3.28333C21.8307 3.91666 23.1369 4.77222 24.2484 5.85C25.3598 6.92778 26.2421 8.19444 26.8953 9.65C27.5484 11.1056 27.875 12.6667 27.875 14.3333C27.875 16 27.5484 17.5611 26.8953 19.0167C26.2421 20.4722 25.3598 21.7389 24.2484 22.8167C23.1369 23.8944 21.8307 24.75 20.3296 25.3833C18.8286 26.0167 17.2187 26.3333 15.5 26.3333ZM19.35 19.9333L21.275 18.0667L16.875 13.8V7.66667H14.125V14.8667L19.35 19.9333ZM6.69995 0.133331L8.62495 2L2.7812 7.66667L0.856201 5.8L6.69995 0.133331ZM24.3 0.133331L30.1437 5.8L28.2187 7.66667L22.375 2L24.3 0.133331ZM15.5 23.6667C18.1812 23.6667 20.4557 22.7611 22.3234 20.95C24.1911 19.1389 25.125 16.9333 25.125 14.3333C25.125 11.7333 24.1911 9.52778 22.3234 7.71666C20.4557 5.90555 18.1812 5 15.5 5C12.8187 5 10.5442 5.90555 8.67651 7.71666C6.80881 9.52778 5.87495 11.7333 5.87495 14.3333C5.87495 16.9333 6.80881 19.1389 8.67651 20.95C10.5442 22.7611 12.8187 23.6667 15.5 23.6667Z" fill="#176CCB"/>
</svg>
