<svg width="26" height="30" viewBox="0 0 26 30" fill="none" xmlns="http://www.w3.org/2000/svg">
<path d="M10.2143 24.1667H15.7857V20H20.4286V15H15.7857V10.8333H10.2143V15H5.57143V20H10.2143V24.1667ZM3.71429 30C2.69286 30 1.81845 29.6736 1.09107 29.0208C0.36369 28.3681 0 27.5833 0 26.6667V8.33333C0 7.41667 0.36369 6.63194 1.09107 5.97917C1.81845 5.32639 2.69286 5 3.71429 5H22.2857C23.3071 5 24.1815 5.32639 24.9089 5.97917C25.6363 6.63194 26 7.41667 26 8.33333V26.6667C26 27.5833 25.6363 28.3681 24.9089 29.0208C24.1815 29.6736 23.3071 30 22.2857 30H3.71429ZM3.71429 26.6667H22.2857V8.33333H3.71429V26.6667ZM1.85714 3.33333V0H24.1429V3.33333H1.85714Z" fill="#176CCB"/>
</svg>
