<svg width="25" height="18" viewBox="0 0 25 18" fill="none" xmlns="http://www.w3.org/2000/svg">
<path d="M24.252 2.87506C23.9674 1.79258 23.1289 0.940045 22.0643 0.650726C20.1346 0.125 12.3967 0.125 12.3967 0.125C12.3967 0.125 4.65891 0.125 2.72916 0.650726C1.66454 0.940091 0.826061 1.79258 0.541477 2.87506C0.0244141 4.83713 0.0244141 8.9308 0.0244141 8.9308C0.0244141 8.9308 0.0244141 13.0245 0.541477 14.9865C0.826061 16.069 1.66454 16.886 2.72916 17.1754C4.65891 17.7011 12.3967 17.7011 12.3967 17.7011C12.3967 17.7011 20.1346 17.7011 22.0643 17.1754C23.1289 16.886 23.9674 16.069 24.252 14.9865C24.7691 13.0245 24.7691 8.9308 24.7691 8.9308C24.7691 8.9308 24.7691 4.83713 24.252 2.87506ZM9.86601 12.6475V5.21406L16.3333 8.93089L9.86601 12.6475Z" fill="#5D9CE3"/>
</svg>
